<?xml version="1.0" encoding="UTF-8"?> <svg xmlns="http://www.w3.org/2000/svg" width="60.104" height="59.994" viewBox="0 0 60.104 59.994"><g id="ic_hotel" transform="translate(-862.66 -894.566)"><path id="Path_354" data-name="Path 354" d="M8.712,14.337a13.337,13.337,0,0,1,26.674,0" transform="translate(862.66 894.566)" fill="#ebedf0"></path><path id="Path_354_-_Outline" data-name="Path 354 - Outline" d="M35.386,15.337a1,1,0,0,1-1-1,12.337,12.337,0,0,0-24.674,0,1,1,0,0,1-2,0,14.337,14.337,0,1,1,28.674,0A1,1,0,0,1,35.386,15.337Z" transform="translate(862.66 894.566)" fill="#303e58"></path><path id="Line_166" data-name="Line 166" d="M0,7.976a1,1,0,0,1-1-1V0A1,1,0,0,1,0-1,1,1,0,0,1,1,0V6.976A1,1,0,0,1,0,7.976Z" transform="translate(882.414 899.113)" fill="#303e58"></path><path id="Line_167" data-name="Line 167" d="M0,7.976a1,1,0,0,1-1-1V0A1,1,0,0,1,0-1,1,1,0,0,1,1,0V6.976A1,1,0,0,1,0,7.976Z" transform="translate(887.004 899.113)" fill="#303e58"></path><path id="Line_168" data-name="Line 168" d="M4.589,1H0A1,1,0,0,1-1,0,1,1,0,0,1,0-1H4.589a1,1,0,0,1,1,1A1,1,0,0,1,4.589,1Z" transform="translate(882.414 902.601)" fill="#303e58"></path><path id="Path_355" data-name="Path 355" d="M1,59.994a1,1,0,0,1-1-1V17.332A3.876,3.876,0,0,1,3.871,13.46H40.226A3.876,3.876,0,0,1,44.1,17.332V29.9a1,1,0,0,1-2,0V17.332a1.874,1.874,0,0,0-1.872-1.872H3.871A1.874,1.874,0,0,0,2,17.332V58.994A1,1,0,0,1,1,59.994Z" transform="translate(862.66 894.566)" fill="#303e58"></path><path id="Path_356" data-name="Path 356" d="M11.78,59.994a1,1,0,0,1-1-1V51.542a2.564,2.564,0,0,1,2.561-2.561H24.557a1,1,0,0,1,0,2H13.341a.562.562,0,0,0-.561.561v7.452A1,1,0,0,1,11.78,59.994Z" transform="translate(862.66 894.566)" fill="#303e58"></path><path id="Line_169" data-name="Line 169" d="M0,10.013a1,1,0,0,1-1-1V0A1,1,0,0,1,0-1,1,1,0,0,1,1,0V9.013A1,1,0,0,1,0,10.013Z" transform="translate(884.391 944.548)" fill="#303e58"></path><path id="Path_357" data-name="Path 357" d="M13.45,25.611H9.47a.759.759,0,0,1-.758-.758V20.874a.759.759,0,0,1,.758-.759h3.98a.758.758,0,0,1,.757.759v3.979a.758.758,0,0,1-.757.758" transform="translate(862.98 895.566)" fill="#f26d21"></path><path id="Path_358" data-name="Path 358" d="M24.039,25.611H20.06a.758.758,0,0,1-.758-.758V20.874a.758.758,0,0,1,.758-.759h3.979a.758.758,0,0,1,.758.759v3.979a.758.758,0,0,1-.758.758" transform="translate(862.66 895.566)" fill="#f26d21"></path><path id="Path_359" data-name="Path 359" d="M34.628,25.611H30.649a.758.758,0,0,1-.758-.758V20.874a.758.758,0,0,1,.758-.759h3.979a.758.758,0,0,1,.758.759v3.979a.758.758,0,0,1-.758.758" transform="translate(862.342 895.566)" fill="#f26d21"></path><path id="Path_360" data-name="Path 360" d="M13.45,35.391H9.47a.759.759,0,0,1-.758-.758V30.654A.759.759,0,0,1,9.47,29.9h3.98a.758.758,0,0,1,.757.759v3.979a.758.758,0,0,1-.757.758" transform="translate(862.98 894.261)" fill="#f26d21"></path><path id="Path_361" data-name="Path 361" d="M24.039,35.391H20.06a.758.758,0,0,1-.758-.758V30.654a.758.758,0,0,1,.758-.759h3.979a.758.758,0,0,1,.758.759v3.979a.758.758,0,0,1-.758.758" transform="translate(862.66 894.261)" fill="#f26d21"></path><path id="Path_362" data-name="Path 362" d="M13.45,45.171H9.47a.759.759,0,0,1-.758-.758V40.434a.759.759,0,0,1,.758-.759h3.98a.758.758,0,0,1,.757.759v3.979a.758.758,0,0,1-.757.758" transform="translate(862.98 892.955)" fill="#f26d21"></path><path id="Path_363" data-name="Path 363" d="M24.039,45.171H20.06a.758.758,0,0,1-.758-.758V40.434a.758.758,0,0,1,.758-.759h3.979a.758.758,0,0,1,.758.759v3.979a.758.758,0,0,1-.758.758" transform="translate(862.66 892.955)" fill="#f26d21"></path><g id="Group_476" data-name="Group 476" transform="translate(0 0.196)"><g id="Group_475" data-name="Group 475" transform="translate(-0.195)"><path id="Line_164" data-name="Line 164" d="M3.359.75H0A.75.75,0,0,1-.75,0,.75.75,0,0,1,0-.75H3.359a.75.75,0,0,1,.75.75A.75.75,0,0,1,3.359.75Z" transform="translate(918.6 933.576)" fill="#303e58"></path><path id="Line_165" data-name="Line 165" d="M3.359.75H0A.75.75,0,0,1-.75,0,.75.75,0,0,1,0-.75H3.359a.75.75,0,0,1,.75.75A.75.75,0,0,1,3.359.75Z" transform="translate(891.697 933.576)" fill="#303e58"></path></g><g id="Group_474" data-name="Group 474" transform="translate(0.285 -0.387)"><path id="Path_351" data-name="Path 351" d="M52.238,54.141v3.83a.987.987,0,0,0,1.009.958h3.026a.988.988,0,0,0,1.009-.958v-3.83" transform="translate(861.66 894.566)" fill="#ebedf0"></path><path id="Path_351_-_Outline" data-name="Path 351 - Outline" d="M56.276,59.928H53.247a1.993,1.993,0,0,1-2.009-1.954V54.141a1,1,0,1,1,2,0v3.786h3.044V54.141a1,1,0,1,1,2,0v3.83A1.993,1.993,0,0,1,56.276,59.928Z" transform="translate(861.66 894.566)" fill="#303e58"></path><path id="Path_352" data-name="Path 352" d="M36.1,54.141v3.83a.987.987,0,0,1-1.009.958H32.063a.987.987,0,0,1-1.009-.958v-3.83" transform="translate(863.66 894.566)" fill="#ebedf0"></path><path id="Path_352_-_Outline" data-name="Path 352 - Outline" d="M35.092,59.928H32.063a1.993,1.993,0,0,1-2.009-1.954V54.141a1,1,0,1,1,2,0v3.786H35.1V54.141a1,1,0,0,1,2,0v3.83A1.993,1.993,0,0,1,35.092,59.928Z" transform="translate(863.66 894.566)" fill="#303e58"></path></g><path id="Path_353" data-name="Path 353" d="M31.054,42.036,32.4,39.01l2.158-4.852a2.023,2.023,0,0,1,1.846-1.2H51.936a2.023,2.023,0,0,1,1.846,1.2L55.94,39.01l1.342,3.026" transform="translate(862.445 894.566)" fill="#ebedf0"></path><path id="Path_353_-_Outline" data-name="Path 353 - Outline" d="M57.283,43.036a1,1,0,0,1-.915-.595l-1.342-3.026-2.158-4.851a1.025,1.025,0,0,0-.934-.607H36.4a1.024,1.024,0,0,0-.932.608L33.31,39.416l-1.342,3.025a1,1,0,1,1-1.828-.811L31.482,38.6l2.158-4.853A3.027,3.027,0,0,1,36.4,31.957H51.936a3.028,3.028,0,0,1,2.76,1.794L56.854,38.6,58.2,41.631a1,1,0,0,1-.914,1.406Z" transform="translate(862.445 894.566)" fill="#303e58"></path><path id="Rectangle_237" data-name="Rectangle 237" d="M2.018,0H28.247a2.017,2.017,0,0,1,2.017,2.017V9.7a2.018,2.018,0,0,1-2.018,2.018H2.018A2.018,2.018,0,0,1,0,9.7V2.018A2.018,2.018,0,0,1,2.018,0Z" transform="translate(891.5 936.603)" fill="#f26d21"></path><path id="Rectangle_237_-_Outline" data-name="Rectangle 237 - Outline" d="M2.018-1H28.247a3.02,3.02,0,0,1,3.017,3.017V9.7a3.021,3.021,0,0,1-3.018,3.018H2.018A3.021,3.021,0,0,1-1,9.7V2.018A3.021,3.021,0,0,1,2.018-1ZM28.246,10.718A1.019,1.019,0,0,0,29.264,9.7V2.017A1.018,1.018,0,0,0,28.247,1H2.018A1.019,1.019,0,0,0,1,2.018V9.7a1.019,1.019,0,0,0,1.018,1.018Z" transform="translate(891.5 936.603)" fill="#303e58"></path><g id="Group_473" data-name="Group 473" transform="translate(-0.73 -0.387)"><path id="Path_349" data-name="Path 349" d="M53.729,46.071a2.5,2.5,0,1,1-2.5,2.5A2.5,2.5,0,0,1,53.729,46.071Z" transform="translate(862.66 894.566)" fill="#fff"></path><path id="Path_349_-_Outline" data-name="Path 349 - Outline" d="M53.729,45.321a3.249,3.249,0,1,1-3.25,3.25A3.254,3.254,0,0,1,53.729,45.321Zm0,5a1.749,1.749,0,1,0-1.75-1.749A1.751,1.751,0,0,0,53.729,50.32Z" transform="translate(862.66 894.566)" fill="#303e58"></path><path id="Path_350" data-name="Path 350" d="M35.571,46.071a2.5,2.5,0,1,1-2.5,2.5A2.5,2.5,0,0,1,35.571,46.071Z" transform="translate(862.66 894.566)" fill="#fff"></path><path id="Path_350_-_Outline" data-name="Path 350 - Outline" d="M35.571,45.321a3.249,3.249,0,1,1-3.25,3.25A3.254,3.254,0,0,1,35.571,45.321Zm0,5a1.749,1.749,0,1,0-1.75-1.749A1.751,1.751,0,0,0,35.571,50.32Z" transform="translate(862.66 894.566)" fill="#303e58"></path></g></g></g></svg> 