<?xml version="1.0" encoding="UTF-8"?> <svg xmlns="http://www.w3.org/2000/svg" width="54.443" height="53.503" viewBox="0 0 54.443 53.503"><g id="ic_support" transform="translate(-870.253 -1027.748)"><path id="Rectangle_239" data-name="Rectangle 239" d="M0,0H29a0,0,0,0,1,0,0V5a4,4,0,0,1-4,4H4A4,4,0,0,1,0,5V0A0,0,0,0,1,0,0Z" transform="translate(871 1071)" fill="#f26d21"></path><path id="Path_373" data-name="Path 373" d="M95.537,53.586H73.994a4.932,4.932,0,0,1-4.741-5.092V5.174A4.931,4.931,0,0,1,73.994.083H94.124a1,1,0,1,1,0,2H73.994a2.935,2.935,0,0,0-2.741,3.091v43.32a2.936,2.936,0,0,0,2.741,3.092H95.537a2.973,2.973,0,0,0,2.742-3.092V38a1,1,0,1,1,2,0V48.494a5.257,5.257,0,0,1-1.364,3.562A4.551,4.551,0,0,1,95.537,53.586Z" transform="translate(801 1027.665)" fill="#303e58"></path><path id="Line_170" data-name="Line 170" d="M5.154,1H0A1,1,0,0,1-1,0,1,1,0,0,1,0-1H5.154a1,1,0,0,1,1,1A1,1,0,0,1,5.154,1Z" transform="translate(883.176 1075.669)" fill="#fff"></path><path id="Line_171" data-name="Line 171" d="M27.576,1H0A1,1,0,0,1-1,0,1,1,0,0,1,0-1H27.576a1,1,0,0,1,1,1A1,1,0,0,1,27.576,1Z" transform="translate(871.924 1071.572)" fill="#303e58"></path><path id="Line_172" data-name="Line 172" d="M13.152,1H0A1,1,0,0,1-1,0,1,1,0,0,1,0-1H13.152a1,1,0,0,1,1,1A1,1,0,0,1,13.152,1Z" transform="translate(872.445 1034.754)" fill="#303e58"></path><path id="Path_376" data-name="Path 376" d="M103.186,3.111c10.222,0,18.51,7,18.51,15.636s-8.288,15.636-18.51,15.636a21.612,21.612,0,0,1-5.839-.795c-2.078,1.854-3.226,2.514-6.985,4.331l-.037-7.929a14.541,14.541,0,0,1-5.647-11.243C84.678,10.111,92.964,3.111,103.186,3.111Z" transform="translate(802 1027.665)" fill="#ebedf0"></path><path id="Path_376_-_Outline" data-name="Path 376 - Outline" d="M103.186,2.111A21.23,21.23,0,0,1,116.92,6.927a16.722,16.722,0,0,1,4.216,5.286,14.459,14.459,0,0,1,0,13.068,16.724,16.724,0,0,1-4.216,5.286,21.23,21.23,0,0,1-13.734,4.816,22.678,22.678,0,0,1-5.58-.691c-1.917,1.66-3.239,2.4-6.809,4.127a1,1,0,0,1-1.435-.9l-.035-7.465a16.7,16.7,0,0,1-4.021-5.045,14.463,14.463,0,0,1-.068-13.2,16.721,16.721,0,0,1,4.215-5.286A21.227,21.227,0,0,1,103.186,2.111Zm0,31.272c9.655,0,17.51-6.566,17.51-14.636s-7.855-14.636-17.51-14.636S85.678,10.677,85.678,18.747a13.473,13.473,0,0,0,5.279,10.468,1,1,0,0,1,.368.77l.03,6.336a20.035,20.035,0,0,0,5.327-3.479,1,1,0,0,1,.936-.217A20.617,20.617,0,0,0,103.186,33.383Z" transform="translate(802 1027.665)" fill="#303e58"></path><path id="Path_374" data-name="Path 374" d="M109.6,23.8a1,1,0,0,1-1-1V20.134l-4.942.073a1,1,0,0,1-.837-1.57l5.957-8.6a1,1,0,0,1,1.822.57V18.1l1.405-.021a1,1,0,0,1,.029,2L110.6,20.1v2.7A1,1,0,0,1,109.6,23.8Zm-1-9.991-3.028,4.368,3.028-.045Z" transform="translate(801.934 1028.698)" fill="#303e58"></path><path id="Path_375" data-name="Path 375" d="M100.674,23.855H93.035a1,1,0,0,1-.707-1.707l4.58-4.58.042-.039A4.2,4.2,0,0,0,98.7,14.142a2.371,2.371,0,0,0-1.253-1.815,2.008,2.008,0,0,0-2.26.023,3.092,3.092,0,0,0-1.232,2.715,1,1,0,0,1-1.976.306,5.056,5.056,0,0,1,2.06-4.658,3.966,3.966,0,0,1,4.37-.139,4.4,4.4,0,0,1,2.279,3.343A6.075,6.075,0,0,1,98.3,19l-2.853,2.853h5.225a1,1,0,0,1,0,2Z" transform="translate(803.486 1028.643)" fill="#303e58"></path></g></svg> 