<?xml version="1.0" encoding="UTF-8"?> <svg xmlns="http://www.w3.org/2000/svg" width="69.947" height="69.947" viewBox="0 0 69.947 69.947"><g id="Group_39" data-name="Group 39" transform="translate(1.2 1.2)"><circle id="Ellipse_2" data-name="Ellipse 2" cx="4.503" cy="4.503" r="4.503" transform="translate(54.038 4.503)" fill="#fff"></circle><path id="Path_1" data-name="Path 1" d="M6916.451,7447.56v43.905l-22.515-7.88-22.516,7.88-22.515-7.88v-45.031l22.515,7.88,22.516-7.88,1.125.394,1.813.732,3.31,1.329a.011.011,0,0,0,.011.011c2.071,4.976,5.482,8.86,7.25,9.918a17.982,17.982,0,0,0,4.683-5.122Z" transform="translate(-6848.905 -7423.918)" fill="#fff"></path><path id="Path_2" data-name="Path 2" d="M6928.312,7417.754a9,9,0,0,1,9.006,9.006,24.2,24.2,0,0,1-4.322,12.891,27.4,27.4,0,0,1-4.684,4.77c-3.11-2.6-7.25-9.565-7.25-9.565a.011.011,0,0,1-.011-.012,21.282,21.282,0,0,1-1.745-8.083A9,9,0,0,1,6928.312,7417.754Zm4.5,9.006a4.5,4.5,0,1,0-4.5,4.5A4.5,4.5,0,0,0,6932.814,7426.76Z" transform="translate(-6869.771 -7417.754)" fill="#f26d21"></path><path id="Path_4" data-name="Path 4" d="M6903.42,7438.554v45.031l-22.515,7.88v-45.031Z" transform="translate(-6858.389 -7423.919)" fill="#ebedf0"></path><g id="Group_6" data-name="Group 6" transform="translate(0 0)"><circle id="Ellipse_3" data-name="Ellipse 3" cx="4.503" cy="4.503" r="4.503" transform="translate(54.037 4.503)" fill="none" stroke="#303e58" stroke-linecap="round" stroke-linejoin="round" stroke-width="2.4"></circle><path id="Path_5" data-name="Path 5" d="M6921.05,7434.843a21.282,21.282,0,0,1-1.745-8.083,9.006,9.006,0,1,1,18.012,0,24.2,24.2,0,0,1-4.322,12.891,17.971,17.971,0,0,1-4.684,5.122c-1.768-1.058-5.178-4.942-7.25-9.917" transform="translate(-6869.771 -7417.754)" fill="none" stroke="#303e58" stroke-linecap="round" stroke-linejoin="round" stroke-width="2.4"></path><path id="Path_6" data-name="Path 6" d="M6916.452,7447.56v43.905l-22.515-7.88-22.516,7.88-22.515-7.88v-45.031l22.515,7.88,22.516-7.88,1.125.393" transform="translate(-6848.905 -7423.919)" fill="none" stroke="#303e58" stroke-linecap="round" stroke-linejoin="round" stroke-width="2.4"></path><line id="Line_1" data-name="Line 1" y2="2.252" transform="translate(22.516 27.018)" fill="none" stroke="#979faf" stroke-linecap="round" stroke-linejoin="round" stroke-width="2.4"></line><line id="Line_2" data-name="Line 2" y2="2.252" transform="translate(22.516 33.773)" fill="none" stroke="#979faf" stroke-linecap="round" stroke-linejoin="round" stroke-width="2.4"></line><line id="Line_3" data-name="Line 3" y2="2.252" transform="translate(22.516 40.528)" fill="none" stroke="#979faf" stroke-linecap="round" stroke-linejoin="round" stroke-width="2.4"></line><line id="Line_4" data-name="Line 4" y2="2.252" transform="translate(22.516 47.283)" fill="none" stroke="#979faf" stroke-linecap="round" stroke-linejoin="round" stroke-width="2.4"></line><line id="Line_5" data-name="Line 5" y2="2.252" transform="translate(22.516 54.037)" fill="none" stroke="#979faf" stroke-linecap="round" stroke-linejoin="round" stroke-width="2.4"></line><line id="Line_6" data-name="Line 6" y2="2.252" transform="translate(22.516 60.792)" fill="none" stroke="#979faf" stroke-linecap="round" stroke-linejoin="round" stroke-width="2.4"></line><line id="Line_7" data-name="Line 7" y2="2.252" transform="translate(45.031 19.138)" fill="none" stroke="#979faf" stroke-linecap="round" stroke-linejoin="round" stroke-width="2.4"></line><line id="Line_8" data-name="Line 8" y2="2.252" transform="translate(45.031 25.893)" fill="none" stroke="#979faf" stroke-linecap="round" stroke-linejoin="round" stroke-width="2.4"></line><line id="Line_9" data-name="Line 9" y2="2.252" transform="translate(45.031 32.647)" fill="none" stroke="#979faf" stroke-linecap="round" stroke-linejoin="round" stroke-width="2.4"></line><line id="Line_10" data-name="Line 10" y2="2.252" transform="translate(45.031 39.402)" fill="none" stroke="#979faf" stroke-linecap="round" stroke-linejoin="round" stroke-width="2.4"></line><line id="Line_11" data-name="Line 11" y2="2.252" transform="translate(45.031 46.157)" fill="none" stroke="#979faf" stroke-linecap="round" stroke-linejoin="round" stroke-width="2.4"></line><line id="Line_12" data-name="Line 12" y2="2.252" transform="translate(45.031 52.911)" fill="none" stroke="#979faf" stroke-linecap="round" stroke-linejoin="round" stroke-width="2.4"></line><path id="Path_7" data-name="Path 7" d="M6872.134,7469.706a23.7,23.7,0,0,0-5.629,7.352" transform="translate(-6854.122 -7433.152)" fill="none" stroke="#979faf" stroke-linecap="round" stroke-linejoin="round" stroke-width="2.4"></path><path id="Path_8" data-name="Path 8" d="M6900.814,7484.789a9.386,9.386,0,0,1-2.251.282c-14.635,0,6.755-22.516-10.132-22.516a7.592,7.592,0,0,0-1.126.079" transform="translate(-6860.286 -7431.033)" fill="none" stroke="#979faf" stroke-linecap="round" stroke-linejoin="round" stroke-width="2.4"></path><path id="Path_9" data-name="Path 9" d="M6927.186,7464.154a60.125,60.125,0,0,1-7.881,14.3" transform="translate(-6869.771 -7431.507)" fill="none" stroke="#979faf" stroke-linecap="round" stroke-linejoin="round" stroke-width="2.4"></path><path id="Path_10" data-name="Path 10" d="M6860.105,7486.554l3.377,3.377,3.377,3.377" transform="translate(-6852.225 -7438.146)" fill="none" stroke="#f26d21" stroke-linecap="round" stroke-linejoin="round" stroke-width="2.4"></path><path id="Path_11" data-name="Path 11" d="M6866.859,7486.554l-3.377,3.377-3.377,3.377" transform="translate(-6852.225 -7438.146)" fill="none" stroke="#f26d21" stroke-linecap="round" stroke-linejoin="round" stroke-width="2.4"></path></g></g></svg> 