<?xml version="1.0" encoding="UTF-8"?> <svg xmlns="http://www.w3.org/2000/svg" width="73.068" height="45.317" viewBox="0 0 73.068 45.317"><g id="Group_430" data-name="Group 430" transform="translate(-121.561 -412.013)"><path id="Path_277" data-name="Path 277" d="M194.442,430.092,183.09,412.543a1.163,1.163,0,0,0-1.608-.344l-5.939,3.841a1.164,1.164,0,0,0-.345,1.608l.589.909-1.851,1.042-12.162-3.156a1.159,1.159,0,0,0-.747.056l-4.188,1.791c-.013-.007-.021-.021-.035-.028l-4.274-2.232a1.155,1.155,0,0,0-.909-.071L140.84,419.6l-2.569-1.089.416-.955a1.161,1.161,0,0,0-.585-1.52l-6.439-2.927a1.159,1.159,0,0,0-1.546.593l-8.46,19.413a1.16,1.16,0,0,0,.585,1.52l6.439,2.929a1.161,1.161,0,0,0,.481.1,1.154,1.154,0,0,0,1.064-.7l.586-1.346,2.788,1.726,2.98,3.228-.712,1.019c-1.069,1.535-.528,3.515,1.315,4.812a5.016,5.016,0,0,0,2.064.881,3.04,3.04,0,0,0,.044.663,4.223,4.223,0,0,0,1.9,2.641,4.622,4.622,0,0,0,2.557.864c.084,0,.161-.022.242-.028a4.156,4.156,0,0,0,1.639,2.247,4.9,4.9,0,0,0,2.7.926,3.371,3.371,0,0,0,.666-.072,4.53,4.53,0,0,0,1.5,1.913,4.576,4.576,0,0,0,2.629.889,2.961,2.961,0,0,0,2.489-1.206l.682-.971,1.577,1.143a4.636,4.636,0,0,0,2.721.874,3.854,3.854,0,0,0,3.087-1.422,4.289,4.289,0,0,0,.883-1.963,3.941,3.941,0,0,0,4.48-3.767,3.946,3.946,0,0,0,4.214-3.8,3.954,3.954,0,0,0,3.441-1.585,3.737,3.737,0,0,0,.664-2.859,13.538,13.538,0,0,0,7.342-7.524l.927-.464.912,1.41a1.163,1.163,0,0,0,.977.531,1.15,1.15,0,0,0,.63-.187L194.1,431.7a1.162,1.162,0,0,0,.344-1.608ZM129.29,433.3l-.006.007c-.012.018-.012.038-.022.058l-.692,1.591-4.324-1.966,7.53-17.281,4.324,1.965Zm11.132,11.464a.613.613,0,0,1-.571.252,2.452,2.452,0,0,1-1.327-.511c-.207-.146-1.216-.908-.747-1.582l2.749-3.935a1.537,1.537,0,0,1,1.246-.539,1.458,1.458,0,0,1,.787.2,1.893,1.893,0,0,1,.8,1.2,1.293,1.293,0,0,1-.19.985Zm3.9,4.11a.621.621,0,0,1-.573.255,2.361,2.361,0,0,1-1.255-.464,2.011,2.011,0,0,1-.921-1.14.632.632,0,0,1,.1-.5l3.041-4.362.356-.508v0a1.534,1.534,0,0,1,1.243-.536,1.472,1.472,0,0,1,.787.2,1.908,1.908,0,0,1,.8,1.2,1.3,1.3,0,0,1-.192.985Zm4.84,2.746c-.01.015-.015.031-.025.046l-.264.379a.57.57,0,0,1-.54.229,2.665,2.665,0,0,1-1.4-.526,1.817,1.817,0,0,1-.759-1.1.616.616,0,0,1,.056-.449l2.749-3.935a1.538,1.538,0,0,1,1.246-.54,1.448,1.448,0,0,1,.787.2,1.89,1.89,0,0,1,.8,1.2,1.289,1.289,0,0,1-.19.983l-.071.1Zm7.012-.34-2.461,3.51a.747.747,0,0,1-.585.214,2.265,2.265,0,0,1-1.272-.453c-.638-.458-.949-1.295-.8-1.575l2.315-3.315.155-.22a1.532,1.532,0,0,1,1.246-.54,1.44,1.44,0,0,1,.785.2,1.889,1.889,0,0,1,.8,1.2A1.293,1.293,0,0,1,156.178,451.282Zm18.66-8.032a1.619,1.619,0,0,1-2.264.337l-.9-.667,0,0h0a1.162,1.162,0,1,0-1.383,1.867h0a1.618,1.618,0,0,1-.726,2.9,1.583,1.583,0,0,1-1.2-.3l-.9-.666,0,0a1.162,1.162,0,1,0-1.383,1.867h0a1.62,1.62,0,0,1,.334,2.261,1.619,1.619,0,0,1-2.263.335l-.9-.669a1.162,1.162,0,1,0-1.385,1.866.987.987,0,0,1,.425.68,1.736,1.736,0,0,1-.419,1.247,2.037,2.037,0,0,1-2.61.117l-1.618-1.172.446-.636a3.613,3.613,0,0,0,.571-2.731,4.23,4.23,0,0,0-1.774-2.7,3.737,3.737,0,0,0-2.1-.607,4.307,4.307,0,0,0-.7.062,4.225,4.225,0,0,0-1.754-2.626,3.713,3.713,0,0,0-2.076-.605,3.723,3.723,0,0,0-.055-.806,4.229,4.229,0,0,0-1.773-2.7,3.742,3.742,0,0,0-2.1-.607,4.315,4.315,0,0,0-.7.062,4.239,4.239,0,0,0-1.752-2.628,3.754,3.754,0,0,0-2.1-.607,3.8,3.8,0,0,0-3.152,1.534l-.675.965-2.743-2.97a1.133,1.133,0,0,0-.242-.2l-3.208-1.984,5.59-12.829,3,1.27a1.171,1.171,0,0,0,.825.031l10.73-3.622,2.2,1.146-2,.856a1.173,1.173,0,0,0-.394.278L145,427.81a1.162,1.162,0,0,0-.081,1.482,6.2,6.2,0,0,0,4.826,2.25c2.484,0,5.139-1.355,7.9-4.028l16.6,13.312a.926.926,0,0,0,.114.127,1.869,1.869,0,0,1,.716,1.132A1.458,1.458,0,0,1,174.839,443.25Zm8.451-10.888a1.169,1.169,0,0,0-.555.6c-1.906,4.65-5.038,6.221-6.259,6.672l-18.2-14.589a1.162,1.162,0,0,0-1.568.1c-2.538,2.661-4.948,4.068-6.969,4.068a3.95,3.95,0,0,1-2.248-.68l5.733-6.176,8.346-3.568,12.23,3.172a1.164,1.164,0,0,0,.862-.112l2.385-1.342,7.317,11.312Zm4.583.595-.6-.93a1.154,1.154,0,0,0-.165-.419l-8.656-13.3a.973.973,0,0,0-.167-.173l-.5-.775,3.987-2.579,10.09,15.6Z" transform="translate(0)" fill="#303e58"></path><path id="Path_278" data-name="Path 278" d="M169.738,432.064l-.6-.93a1.154,1.154,0,0,0-.165-.419l-8.656-13.3a.973.973,0,0,0-.167-.173l-.5-.775,3.987-2.579,10.09,15.6Z" transform="translate(18.135 0.893)" fill="#f26d21"></path><path id="Path_279" data-name="Path 279" d="M128.424,432.109l-.006.007c-.012.018-.012.038-.022.058l-.692,1.591L123.38,431.8l7.53-17.281,4.324,1.965Z" transform="translate(0.866 1.193)" fill="#f26d21"></path><path id="Path_280" data-name="Path 280" d="M171.551,441.216a1.619,1.619,0,0,1-2.264.337l-.9-.667,0,0h0A1.162,1.162,0,1,0,167,442.75h0a1.618,1.618,0,0,1-.726,2.9,1.583,1.583,0,0,1-1.2-.3l-.9-.666,0,0a1.162,1.162,0,1,0-1.383,1.867h0a1.62,1.62,0,0,1,.334,2.261,1.619,1.619,0,0,1-2.263.335l-.9-.669a1.162,1.162,0,1,0-1.385,1.866.987.987,0,0,1,.425.68,1.736,1.736,0,0,1-.419,1.247,2.037,2.037,0,0,1-2.61.117l-1.618-1.172.446-.636a3.613,3.613,0,0,0,.571-2.731,4.23,4.23,0,0,0-1.774-2.7,3.737,3.737,0,0,0-2.1-.607,4.307,4.307,0,0,0-.7.062,4.225,4.225,0,0,0-1.754-2.626,3.713,3.713,0,0,0-2.076-.605,3.723,3.723,0,0,0-.055-.806,4.229,4.229,0,0,0-1.773-2.7,3.742,3.742,0,0,0-2.1-.607,4.315,4.315,0,0,0-.7.062,4.239,4.239,0,0,0-1.752-2.628,3.754,3.754,0,0,0-2.1-.607,3.8,3.8,0,0,0-3.152,1.534l-.675.965-2.743-2.97a1.133,1.133,0,0,0-.242-.2l-3.208-1.984,5.59-12.829,3,1.27a1.171,1.171,0,0,0,.825.031l10.73-3.622,2.2,1.146-2,.856a1.173,1.173,0,0,0-.394.278l-6.694,7.211a1.162,1.162,0,0,0-.081,1.482,6.2,6.2,0,0,0,4.826,2.25c2.484,0,5.139-1.355,7.9-4.028l16.6,13.312a.926.926,0,0,0,.114.127,1.869,1.869,0,0,1,.716,1.132A1.458,1.458,0,0,1,171.551,441.216Z" transform="translate(3.287 2.034)" fill="#ebedf0"></path></g></svg> 